<?xml version="1.0" encoding="UTF-8" standalone="no"?>
<svg width="299px" height="258px" viewBox="0 0 299 258" version="1.1" xmlns="http://www.w3.org/2000/svg" xmlns:xlink="http://www.w3.org/1999/xlink">
    <!-- Generator: Sketch 40.3 (33839) - http://www.bohemiancoding.com/sketch -->
    <title>bg-logo</title>
    <desc>Created with Sketch.</desc>
    <defs></defs>
    <g id="Page-1" stroke="none" stroke-width="1" fill="none" fill-rule="evenodd" opacity="0.0299999993">
        <g id="Личный-кабинет" transform="translate(-528.000000, -2562.000000)" fill="#FFFFFF">
            <g id="Group" transform="translate(528.000000, 2427.000000)">
                <g id="bg-logo" transform="translate(-71.000000, 135.000000)">
                    <path d="M186.046397,5.6357061 C189.157906,0.246414 196.048548,-1.60045145 201.439723,1.51214492 L201.439723,1.51214492 C206.829713,4.62405707 208.676216,11.5166332 205.565277,16.9049369 L186.786537,49.4306685 C183.675028,54.8199606 176.784386,56.666826 171.393211,53.5542296 L171.393211,53.5542296 C166.003221,50.4423175 164.156718,43.5497413 167.267657,38.1614377 L186.046397,5.6357061 L186.046397,5.6357061 L186.046397,5.6357061 Z M338.758904,115.488135 L348.486013,121.104083 C368.573937,132.701852 375.458809,158.384297 363.862133,178.470329 L259.377955,359.442234 C247.782028,379.526969 222.09849,386.407764 202.009269,374.809247 L21.0086316,270.30848 C0.920708144,258.710712 -5.96416421,233.028266 5.63251175,212.942234 L110.11669,31.9703292 C121.712617,11.8855945 147.396155,5.00479958 167.485376,16.6033167 L177.212682,22.2193799 C176.364688,26.782802 178.411675,31.5852993 182.660653,34.0384479 C186.910641,36.4921799 192.092605,35.863618 195.620449,32.8471089 L320.351138,104.860405 C319.503143,109.423828 321.55013,114.226325 325.799108,116.679474 C330.049097,119.133206 335.23106,118.504644 338.758904,115.488135 L338.758904,115.488135 L338.758904,115.488135 Z M329.184852,88.2767317 C332.296361,82.8874396 339.187003,81.0405742 344.578178,84.1531706 L344.578178,84.1531706 C349.968168,87.2650827 351.814671,94.1576589 348.703732,99.5459625 L329.924992,132.071694 C326.813483,137.460986 319.922841,139.307852 314.531666,136.195255 L314.531666,136.195255 C309.141676,133.083343 307.295173,126.190767 310.406112,120.802463 L329.184852,88.2767317 L329.184852,88.2767317 L329.184852,88.2767317 Z M159.49034,111.73471 C162.601758,106.345575 169.494509,104.500098 174.884574,107.612054 L197.655528,120.75887 L186.388086,140.274652 L153.856619,121.492601 L159.49034,111.73471 L159.49034,111.73471 L159.49034,111.73471 Z M204.161821,124.51528 L236.693289,143.297332 L225.425847,162.813113 L192.89438,144.031062 L204.161821,124.51528 L204.161821,124.51528 L204.161821,124.51528 Z M243.199582,147.053742 L265.970536,160.200559 C271.361119,163.312813 273.20943,170.203365 270.097328,175.593684 L264.463607,185.351575 L231.93214,166.569524 L243.199582,147.053742 L243.199582,147.053742 L243.199582,147.053742 Z M150.100805,127.997861 L182.632272,146.779912 L171.36483,166.295694 L138.833363,147.513643 L150.100805,127.997861 L150.100805,127.997861 L150.100805,127.997861 Z M228.176326,173.074784 L260.707793,191.856836 L249.440351,211.372617 L216.908884,192.590566 L228.176326,173.074784 L228.176326,173.074784 L228.176326,173.074784 Z M135.077549,154.018904 L167.609016,172.800955 L156.341575,192.316737 L123.810107,173.534685 L135.077549,154.018904 L135.077549,154.018904 L135.077549,154.018904 Z M213.15307,199.095827 L245.684537,217.877878 L234.417096,237.39366 L201.885628,218.611608 L213.15307,199.095827 L213.15307,199.095827 L213.15307,199.095827 Z M198.129815,225.116869 L230.661282,243.89892 L219.39384,263.414702 L186.862373,244.632651 L198.129815,225.116869 L198.129815,225.116869 L198.129815,225.116869 Z M105.031038,206.060988 L137.562505,224.84304 L126.295063,244.358821 L103.524109,231.212005 C98.1335262,228.099751 96.2852145,221.209198 99.3973167,215.818879 L105.031038,206.060988 L105.031038,206.060988 L105.031038,206.060988 Z M139.573174,191.309177 L172.104641,210.091228 L160.837199,229.60701 L128.305732,210.824958 L139.573174,191.309177 L139.573174,191.309177 L139.573174,191.309177 Z M183.106559,251.137911 L215.638026,269.919963 L210.004305,279.677854 C206.892887,285.066988 200.000136,286.912465 194.610071,283.80051 L171.839117,270.653693 L183.106559,251.137911 L183.106559,251.137911 L183.106559,251.137911 Z M174.11531,176.557365 L206.646777,195.339416 L195.379335,214.855198 L162.847868,196.073147 L174.11531,176.557365 L174.11531,176.557365 L174.11531,176.557365 Z" id="ico"></path>
                </g>
            </g>
        </g>
    </g>
</svg>