<svg xmlns="http://www.w3.org/2000/svg" width="15" height="8" viewBox="0 0 15 8">
  <path d="M1.20837809e-05,7.5988 C1.20837809e-05,7.7012 0.0386962943,7.8036 0.115275242,7.882 C0.268433136,8.038 0.519485768,8.038 0.672643663,7.882 L7.49843314,0.9652 L14.3242226,7.882 C14.47817,8.038 14.7292226,8.038 14.8823805,7.882 C15.0363279,7.7268 15.0363279,7.4724 14.8823805,7.3164 L7.77711735,0.1164 C7.62395945,-0.0388 7.37290682,-0.0388 7.21895945,0.1164 L0.113696294,7.3164 C0.0371173469,7.3948 -0.000777389903,7.4972 1.20837809e-05,7.5988 L1.20837809e-05,7.5988 L1.20837809e-05,7.5988 Z" transform="matrix(-1 0 0 1 14.998 .001)"/>
</svg>
