<?xml version="1.0" encoding="UTF-8" standalone="no"?>
<svg width="19px" height="20px" viewBox="0 0 19 20" version="1.1" xmlns="http://www.w3.org/2000/svg" xmlns:xlink="http://www.w3.org/1999/xlink">
    <!-- Generator: Sketch 40.3 (33839) - http://www.bohemiancoding.com/sketch -->
    <title>ico-finish</title>
    <desc>Created with Sketch.</desc>
    <defs></defs>
    <g id="Page-1" stroke="none" stroke-width="1" fill="none" fill-rule="evenodd">
        <g id="Личный-кабинет" transform="translate(-476.000000, -558.000000)" fill="#FFFFFF">
            <g id="ico-finish" transform="translate(476.000000, 558.000000)">
                <path d="M0.5,19.9981 C0.224,19.9981 0,19.7741 0,19.4981 L0,2.4981 C0,2.2221 0.224,1.9981 0.5,1.9981 C0.776,1.9981 1,2.2221 1,2.4981 L1,19.4981 C1,19.7741 0.776,19.9981 0.5,19.9981" id="Fill-1"></path>
                <path d="M14.5,11.9981 C12.293,11.9981 11.153,10.8581 10.146,9.8521 C9.151,8.8571 8.292,7.9981 6.5,7.9981 C4.708,7.9981 3.848,8.8571 2.854,9.8521 C2.659,10.0471 2.342,10.0471 2.147,9.8521 C1.952,9.6571 1.952,9.3401 2.147,9.1451 C3.153,8.1391 4.293,6.9991 6.501,6.9991 C8.709,6.9991 9.848,8.1391 10.855,9.1451 C11.85,10.1401 12.709,10.9991 14.501,10.9991 C16.205,10.9991 17.066,10.2231 18.001,9.2921 L18.001,3.6641 C17.162,4.3871 16.118,4.9991 14.501,4.9991 C12.294,4.9991 11.154,3.8591 10.147,2.8531 C9.152,1.8581 8.293,0.9991 6.501,0.9991 C4.709,0.9991 3.849,1.8581 2.855,2.8531 C2.66,3.0481 2.343,3.0481 2.148,2.8531 C1.953,2.6581 1.953,2.3411 2.148,2.1461 C3.154,1.1401 4.294,0.0001 6.502,0.0001 C8.71,0.0001 9.849,1.1401 10.856,2.1461 C11.851,3.1411 12.71,4.0001 14.502,4.0001 C16.294,4.0001 17.154,3.1411 18.148,2.1461 C18.291,2.0031 18.506,1.9601 18.693,2.0381 C18.88,2.1161 19.002,2.2981 19.002,2.5001 L19.002,9.5001 C19.002,9.6331 18.949,9.7601 18.856,9.8541 C17.85,10.8601 16.71,12.0001 14.502,12.0001 L14.5,11.9981 Z" id="Fill-3"></path>
            </g>
        </g>
    </g>
</svg>