<?xml version="1.0" encoding="UTF-8" standalone="no"?>
<svg width="15px" height="8px" viewBox="0 0 15 8" version="1.1" xmlns="http://www.w3.org/2000/svg" xmlns:xlink="http://www.w3.org/1999/xlink">
    <!-- Generator: Sketch 41 (35326) - http://www.bohemiancoding.com/sketch -->
    <title>ico-arrow-accordion</title>
    <desc>Created with Sketch.</desc>
    <defs></defs>
    <g id="Page-1" stroke="none" stroke-width="1" fill="none" fill-rule="evenodd">
        <g id="Зачетная-книжка-отчеты-за-все-дни" transform="translate(-1323.000000, -454.000000)" fill="#70768C">
            <g id="Group-25" transform="translate(1249.000000, 446.000000)">
                <g id="ico-arrow-accordion" transform="translate(81.500000, 12.000000) scale(1, -1) translate(-81.500000, -12.000000) translate(74.000000, 8.000000)">
                    <path d="M1.20837809e-05,7.5988 C1.20837809e-05,7.7012 0.0386962943,7.8036 0.115275242,7.882 C0.268433136,8.038 0.519485768,8.038 0.672643663,7.882 L7.49843314,0.9652 L14.3242226,7.882 C14.47817,8.038 14.7292226,8.038 14.8823805,7.882 C15.0363279,7.7268 15.0363279,7.4724 14.8823805,7.3164 L7.77711735,0.1164 C7.62395945,-0.0388 7.37290682,-0.0388 7.21895945,0.1164 L0.113696294,7.3164 C0.0371173469,7.3948 -0.000777389903,7.4972 1.20837809e-05,7.5988 L1.20837809e-05,7.5988 L1.20837809e-05,7.5988 Z" id="Shape"></path>
                </g>
            </g>
        </g>
    </g>
</svg>