<?xml version="1.0" encoding="UTF-8" standalone="no"?>
<svg width="14px" height="19px" viewBox="0 0 14 19" version="1.1" xmlns="http://www.w3.org/2000/svg" xmlns:xlink="http://www.w3.org/1999/xlink">
    <!-- Generator: Sketch 40.3 (33839) - http://www.bohemiancoding.com/sketch -->
    <title>ico-arrow-up</title>
    <desc>Created with Sketch.</desc>
    <defs></defs>
    <g id="Page-1" stroke="none" stroke-width="1" fill="none" fill-rule="evenodd">
        <g id="Личный-кабинет-задания-моб" transform="translate(-283.000000, -2998.000000)" fill="#FFFFFF">
            <g id="Group-4" transform="translate(0.000000, 2226.000000)">
                <g id="Group-57" transform="translate(0.000000, 49.000000)">
                    <g id="ico-arrow-up" transform="translate(283.000000, 723.000000)">
                        <path d="M6.273,0.593289063 L0.273,6.59328906 C0.078,6.78728906 0.078,7.10528906 0.273,7.30028906 C0.467,7.49428906 0.785,7.49428906 0.98,7.30028906 L6.126,2.15428906 L6.126,18.4472891 C6.126,18.7232891 6.35,18.9472891 6.626,18.9472891 C6.902,18.9472891 7.126,18.7232891 7.126,18.4472891 L7.126,2.15428906 L12.272,7.30028906 C12.467,7.49428906 12.785,7.49428906 12.979,7.30028906 C13.078,7.20128906 13.125,7.07328906 13.125,6.94628906 C13.125,6.81928906 13.076,6.69028906 12.979,6.59228906 L6.979,0.592289063 C6.785,0.398289063 6.467,0.398289063 6.272,0.592289063 L6.273,0.593289063 L6.273,0.593289063 Z" id="Shape"></path>
                    </g>
                </g>
            </g>
        </g>
    </g>
</svg>